<svg xmlns="http://www.w3.org/2000/svg" viewBox="0 0 480 250" width="480" height="250" role="img" aria-label="Illustration of a price chart"><defs><linearGradient id="bg" x1="0" y1="0" x2="0" y2="1"><stop offset="0" stop-color="#121514"/><stop offset="1" stop-color="#050707"/></linearGradient><linearGradient id="area" x1="0" y1="0" x2="0" y2="1"><stop offset="0" stop-color="#d8c39a" stop-opacity=".16"/><stop offset="1" stop-color="#d8c39a" stop-opacity="0"/></linearGradient><radialGradient id="glow" cx=".62" cy=".42" r=".7"><stop offset="0" stop-color="#ffffff" stop-opacity=".07"/><stop offset="1" stop-color="#ffffff" stop-opacity="0"/></radialGradient></defs><rect width="480" height="250" fill="url(#bg)"/><rect width="480" height="250" fill="url(#glow)"/><g stroke="#ffffff" stroke-opacity=".06" stroke-width="1"><path d="M24 20V230"/><path d="M72 20V230"/><path d="M120 20V230"/><path d="M168 20V230"/><path d="M216 20V230"/><path d="M264 20V230"/><path d="M312 20V230"/><path d="M360 20V230"/><path d="M408 20V230"/><path d="M16 30H444"/><path d="M16 62H444"/><path d="M16 94H444"/><path d="M16 126H444"/><path d="M16 158H444"/><path d="M16 190H444"/><path d="M16 222H444"/></g><g fill="#ffffff" fill-opacity=".12"><rect x="25.9" y="196.3" width="5.7" height="7.7"/><rect x="35.5" y="191.4" width="5.7" height="12.6"/><rect x="45.0" y="193.9" width="5.7" height="10.1"/><rect x="54.5" y="192.1" width="5.7" height="11.9"/><rect x="64.1" y="193.2" width="5.7" height="10.8"/><rect x="73.6" y="197.6" width="5.7" height="6.4"/><rect x="83.2" y="191.9" width="5.7" height="12.1"/><rect x="92.7" y="194.4" width="5.7" height="9.6"/><rect x="102.3" y="196.1" width="5.7" height="7.9"/><rect x="111.8" y="188.0" width="5.7" height="16.0"/><rect x="121.4" y="186.4" width="5.7" height="17.6"/><rect x="130.9" y="191.3" width="5.7" height="12.7"/><rect x="140.5" y="188.2" width="5.7" height="15.8"/><rect x="150.0" y="189.9" width="5.7" height="14.1"/><rect x="159.5" y="189.3" width="5.7" height="14.7"/><rect x="169.1" y="193.1" width="5.7" height="10.9"/><rect x="178.6" y="189.7" width="5.7" height="14.3"/><rect x="188.2" y="194.3" width="5.7" height="9.7"/><rect x="197.7" y="190.8" width="5.7" height="13.2"/><rect x="207.3" y="193.6" width="5.7" height="10.4"/><rect x="216.8" y="191.8" width="5.7" height="12.2"/><rect x="226.4" y="191.4" width="5.7" height="12.6"/><rect x="235.9" y="190.7" width="5.7" height="13.3"/><rect x="245.5" y="196.5" width="5.7" height="7.5"/><rect x="255.0" y="195.0" width="5.7" height="9.0"/><rect x="264.5" y="193.2" width="5.7" height="10.8"/><rect x="274.1" y="185.5" width="5.7" height="18.5"/><rect x="283.6" y="183.9" width="5.7" height="20.1"/><rect x="293.2" y="184.5" width="5.7" height="19.5"/><rect x="302.7" y="192.5" width="5.7" height="11.5"/><rect x="312.3" y="194.5" width="5.7" height="9.5"/><rect x="321.8" y="194.7" width="5.7" height="9.3"/><rect x="331.4" y="192.1" width="5.7" height="11.9"/><rect x="340.9" y="185.3" width="5.7" height="18.7"/><rect x="350.5" y="188.4" width="5.7" height="15.6"/><rect x="360.0" y="187.8" width="5.7" height="16.2"/><rect x="369.5" y="192.6" width="5.7" height="11.4"/><rect x="379.1" y="196.4" width="5.7" height="7.6"/><rect x="388.6" y="192.5" width="5.7" height="11.5"/><rect x="398.2" y="189.1" width="5.7" height="14.9"/><rect x="407.7" y="192.3" width="5.7" height="11.7"/><rect x="417.3" y="191.2" width="5.7" height="12.8"/><rect x="426.8" y="191.0" width="5.7" height="13.0"/><rect x="436.4" y="189.6" width="5.7" height="14.4"/></g><path d="M28.8 176L28.8,153.9L38.3,157.5L47.9,160.9L57.4,162.1L67.0,162.2L76.5,162.4L86.0,162.8L95.6,162.4L105.1,161.2L114.7,158.0L124.2,153.6L133.8,149.5L143.3,144.9L152.9,138.3L162.4,129.4L172.0,121.7L181.5,114.0L191.0,106.6L200.6,101.8L210.1,97.3L219.7,93.3L229.2,90.1L238.8,87.4L248.3,83.6L257.9,78.9L267.4,76.5L277.0,77.9L286.5,81.9L296.0,89.1L305.6,96.2L315.1,104.0L324.7,110.2L334.2,115.3L343.8,120.5L353.3,125.2L362.9,131.9L372.4,138.9L382.0,146.1L391.5,151.6L401.0,154.2L410.6,155.4L420.1,154.5L429.7,153.3L439.2,153.5L439.2 176Z" fill="url(#area)"/><polyline points="28.8,153.9 38.3,157.5 47.9,160.9 57.4,162.1 67.0,162.2 76.5,162.4 86.0,162.8 95.6,162.4 105.1,161.2 114.7,158.0 124.2,153.6 133.8,149.5 143.3,144.9 152.9,138.3 162.4,129.4 172.0,121.7 181.5,114.0 191.0,106.6 200.6,101.8 210.1,97.3 219.7,93.3 229.2,90.1 238.8,87.4 248.3,83.6 257.9,78.9 267.4,76.5 277.0,77.9 286.5,81.9 296.0,89.1 305.6,96.2 315.1,104.0 324.7,110.2 334.2,115.3 343.8,120.5 353.3,125.2 362.9,131.9 372.4,138.9 382.0,146.1 391.5,151.6 401.0,154.2 410.6,155.4 420.1,154.5 429.7,153.3 439.2,153.5" fill="none" stroke="#d8c39a" stroke-opacity=".85" stroke-width="1.6" stroke-linejoin="round"/><path d="M28.8 148.6V160.0" stroke="#7d8582" stroke-width="1"/><rect x="25.7" y="151.1" width="6.1" height="2.8" fill="#0b0e0d" stroke="#7d8582" stroke-width="1"/><path d="M38.3 148.5V165.2" stroke="#7d8582" stroke-width="1"/><rect x="35.3" y="153.9" width="6.1" height="7.3" fill="#0b0e0d" stroke="#7d8582" stroke-width="1"/><path d="M47.9 156.0V169.5" stroke="#7d8582" stroke-width="1"/><rect x="44.8" y="161.1" width="6.1" height="6.7" fill="#0b0e0d" stroke="#7d8582" stroke-width="1"/><path d="M57.4 163.7V169.9" stroke="#e9ecea" stroke-width="1"/><rect x="54.4" y="165.6" width="6.1" height="2.3" fill="#e9ecea" stroke="#e9ecea" stroke-width="1"/><path d="M67.0 155.2V167.8" stroke="#e9ecea" stroke-width="1"/><rect x="63.9" y="162.7" width="6.1" height="2.9" fill="#e9ecea" stroke="#e9ecea" stroke-width="1"/><path d="M76.5 156.7V171.8" stroke="#7d8582" stroke-width="1"/><rect x="73.4" y="162.7" width="6.1" height="1.2" fill="#0b0e0d" stroke="#7d8582" stroke-width="1"/><path d="M86.0 151.6V172.0" stroke="#e9ecea" stroke-width="1"/><rect x="83.0" y="155.9" width="6.1" height="7.5" fill="#e9ecea" stroke="#e9ecea" stroke-width="1"/><path d="M95.6 148.2V162.8" stroke="#7d8582" stroke-width="1"/><rect x="92.5" y="155.9" width="6.1" height="3.4" fill="#0b0e0d" stroke="#7d8582" stroke-width="1"/><path d="M105.1 157.1V163.9" stroke="#7d8582" stroke-width="1"/><rect x="102.1" y="159.3" width="6.1" height="1.2" fill="#0b0e0d" stroke="#7d8582" stroke-width="1"/><path d="M114.7 143.8V165.9" stroke="#e9ecea" stroke-width="1"/><rect x="111.6" y="146.5" width="6.1" height="13.8" fill="#e9ecea" stroke="#e9ecea" stroke-width="1"/><path d="M124.2 132.3V151.9" stroke="#e9ecea" stroke-width="1"/><rect x="121.2" y="136.4" width="6.1" height="10.1" fill="#e9ecea" stroke="#e9ecea" stroke-width="1"/><path d="M133.8 134.6V141.7" stroke="#7d8582" stroke-width="1"/><rect x="130.7" y="136.4" width="6.1" height="2.4" fill="#0b0e0d" stroke="#7d8582" stroke-width="1"/><path d="M143.3 123.5V142.5" stroke="#e9ecea" stroke-width="1"/><rect x="140.3" y="128.0" width="6.1" height="10.7" fill="#e9ecea" stroke="#e9ecea" stroke-width="1"/><path d="M152.9 114.9V131.6" stroke="#e9ecea" stroke-width="1"/><rect x="149.8" y="119.7" width="6.1" height="8.4" fill="#e9ecea" stroke="#e9ecea" stroke-width="1"/><path d="M162.4 100.7V122.8" stroke="#e9ecea" stroke-width="1"/><rect x="159.4" y="107.2" width="6.1" height="12.4" fill="#e9ecea" stroke="#e9ecea" stroke-width="1"/><path d="M172.0 94.9V115.1" stroke="#e9ecea" stroke-width="1"/><rect x="168.9" y="100.1" width="6.1" height="7.1" fill="#e9ecea" stroke="#e9ecea" stroke-width="1"/><path d="M181.5 86.8V108.7" stroke="#e9ecea" stroke-width="1"/><rect x="178.4" y="90.3" width="6.1" height="9.8" fill="#e9ecea" stroke="#e9ecea" stroke-width="1"/><path d="M191.0 85.9V101.5" stroke="#7d8582" stroke-width="1"/><rect x="188.0" y="90.3" width="6.1" height="4.2" fill="#0b0e0d" stroke="#7d8582" stroke-width="1"/><path d="M200.6 89.5V100.4" stroke="#7d8582" stroke-width="1"/><rect x="197.5" y="94.5" width="6.1" height="4.3" fill="#0b0e0d" stroke="#7d8582" stroke-width="1"/><path d="M210.1 85.8V104.4" stroke="#e9ecea" stroke-width="1"/><rect x="207.1" y="92.8" width="6.1" height="6.0" fill="#e9ecea" stroke="#e9ecea" stroke-width="1"/><path d="M219.7 79.7V99.4" stroke="#e9ecea" stroke-width="1"/><rect x="216.6" y="83.3" width="6.1" height="9.5" fill="#e9ecea" stroke="#e9ecea" stroke-width="1"/><path d="M229.2 75.2V88.1" stroke="#e9ecea" stroke-width="1"/><rect x="226.2" y="80.8" width="6.1" height="2.5" fill="#e9ecea" stroke="#e9ecea" stroke-width="1"/><path d="M238.8 65.6V85.7" stroke="#e9ecea" stroke-width="1"/><rect x="235.7" y="73.9" width="6.1" height="6.9" fill="#e9ecea" stroke="#e9ecea" stroke-width="1"/><path d="M248.3 69.9V80.5" stroke="#e9ecea" stroke-width="1"/><rect x="245.3" y="71.7" width="6.1" height="2.2" fill="#e9ecea" stroke="#e9ecea" stroke-width="1"/><path d="M257.9 62.0V79.2" stroke="#e9ecea" stroke-width="1"/><rect x="254.8" y="70.7" width="6.1" height="1.2" fill="#e9ecea" stroke="#e9ecea" stroke-width="1"/><path d="M267.4 66.5V84.6" stroke="#7d8582" stroke-width="1"/><rect x="264.4" y="70.7" width="6.1" height="7.6" fill="#0b0e0d" stroke="#7d8582" stroke-width="1"/><path d="M277.0 73.5V94.8" stroke="#7d8582" stroke-width="1"/><rect x="273.9" y="78.3" width="6.1" height="13.9" fill="#0b0e0d" stroke="#7d8582" stroke-width="1"/><path d="M286.5 90.4V111.6" stroke="#7d8582" stroke-width="1"/><rect x="283.4" y="92.2" width="6.1" height="12.4" fill="#0b0e0d" stroke="#7d8582" stroke-width="1"/><path d="M296.0 101.4V121.4" stroke="#7d8582" stroke-width="1"/><rect x="293.0" y="104.6" width="6.1" height="12.6" fill="#0b0e0d" stroke="#7d8582" stroke-width="1"/><path d="M305.6 112.1V121.8" stroke="#e9ecea" stroke-width="1"/><rect x="302.5" y="114.0" width="6.1" height="3.1" fill="#e9ecea" stroke="#e9ecea" stroke-width="1"/><path d="M315.1 106.1V125.4" stroke="#7d8582" stroke-width="1"/><rect x="312.1" y="114.0" width="6.1" height="4.0" fill="#0b0e0d" stroke="#7d8582" stroke-width="1"/><path d="M324.7 111.7V122.4" stroke="#e9ecea" stroke-width="1"/><rect x="321.6" y="115.2" width="6.1" height="2.8" fill="#e9ecea" stroke="#e9ecea" stroke-width="1"/><path d="M334.2 107.2V131.6" stroke="#7d8582" stroke-width="1"/><rect x="331.2" y="115.2" width="6.1" height="8.0" fill="#0b0e0d" stroke="#7d8582" stroke-width="1"/><path d="M343.8 120.5V138.4" stroke="#7d8582" stroke-width="1"/><rect x="340.7" y="123.1" width="6.1" height="12.2" fill="#0b0e0d" stroke="#7d8582" stroke-width="1"/><path d="M353.3 130.4V151.1" stroke="#7d8582" stroke-width="1"/><rect x="350.3" y="135.3" width="6.1" height="10.0" fill="#0b0e0d" stroke="#7d8582" stroke-width="1"/><path d="M362.9 144.0V158.7" stroke="#7d8582" stroke-width="1"/><rect x="359.8" y="145.3" width="6.1" height="8.9" fill="#0b0e0d" stroke="#7d8582" stroke-width="1"/><path d="M372.4 148.6V168.5" stroke="#7d8582" stroke-width="1"/><rect x="369.4" y="154.2" width="6.1" height="5.9" fill="#0b0e0d" stroke="#7d8582" stroke-width="1"/><path d="M382.0 153.2V166.1" stroke="#e9ecea" stroke-width="1"/><rect x="378.9" y="158.4" width="6.1" height="1.7" fill="#e9ecea" stroke="#e9ecea" stroke-width="1"/><path d="M391.5 154.4V166.4" stroke="#e9ecea" stroke-width="1"/><rect x="388.4" y="156.1" width="6.1" height="2.2" fill="#e9ecea" stroke="#e9ecea" stroke-width="1"/><path d="M401.0 142.9V163.4" stroke="#e9ecea" stroke-width="1"/><rect x="398.0" y="150.8" width="6.1" height="5.4" fill="#e9ecea" stroke="#e9ecea" stroke-width="1"/><path d="M410.6 146.5V155.0" stroke="#7d8582" stroke-width="1"/><rect x="407.5" y="150.8" width="6.1" height="2.1" fill="#0b0e0d" stroke="#7d8582" stroke-width="1"/><path d="M420.1 147.0V154.7" stroke="#e9ecea" stroke-width="1"/><rect x="417.1" y="148.8" width="6.1" height="4.1" fill="#e9ecea" stroke="#e9ecea" stroke-width="1"/><path d="M429.7 146.3V156.9" stroke="#7d8582" stroke-width="1"/><rect x="426.6" y="148.8" width="6.1" height="4.2" fill="#0b0e0d" stroke="#7d8582" stroke-width="1"/><path d="M439.2 151.7V162.1" stroke="#7d8582" stroke-width="1"/><rect x="436.2" y="153.0" width="6.1" height="6.7" fill="#0b0e0d" stroke="#7d8582" stroke-width="1"/><path d="M24 159.7H444" stroke="#d8c39a" stroke-opacity=".5" stroke-dasharray="3 4"/><rect x="446" y="152.7" width="30" height="14" rx="2" fill="#d8c39a"/></svg>
