<svg xmlns="http://www.w3.org/2000/svg" width="1920" height="1080" viewBox="0 0 1920 1080">
<rect width="1920" height="1080" fill="#08030a"/>
<text x="110.0" y="115.0" fill="#f5e8ea" font-family="Cascadia Mono,Cascadia Code,Consolas,monospace" font-size="58" font-weight="750" text-anchor="start">SELECTION AFTER COMPARING 184 HELD-OUT RESULTS</text>
<text x="110.0" y="165.0" fill="#c89aa3" font-family="Cascadia Mono,Cascadia Code,Consolas,monospace" font-size="25" font-weight="500" text-anchor="start">THE RAW MAXIMUM ANSWERS A DIFFERENT QUESTION FROM ONE PRE-SPECIFIED TEST</text>
<line x1="110.0" y1="198.0" x2="1810.0" y2="198.0" stroke="#3a0d1a" stroke-width="2"/>
<rect x="110.0" y="245.0" width="1700.0" height="680.0" rx="18" fill="#0a0407" fill-opacity="1" stroke="#3a0d1a"/>
<line x1="210.0" y1="840.0" x2="1700.0" y2="840.0" stroke="#c89aa3" stroke-width="3"/>
<circle cx="210.0" cy="840.0" r="5" fill="#f5e8ea" opacity="0.5"/>
<circle cx="218.1" cy="793.9" r="5" fill="#f5e8ea" opacity="0.5"/>
<circle cx="226.3" cy="791.5" r="5" fill="#f5e8ea" opacity="0.5"/>
<circle cx="234.4" cy="773.8" r="5" fill="#f5e8ea" opacity="0.5"/>
<circle cx="242.6" cy="772.9" r="5" fill="#f5e8ea" opacity="0.5"/>
<circle cx="250.7" cy="772.5" r="5" fill="#f5e8ea" opacity="0.5"/>
<circle cx="258.9" cy="766.3" r="5" fill="#f5e8ea" opacity="0.5"/>
<circle cx="267.0" cy="758.6" r="5" fill="#f5e8ea" opacity="0.5"/>
<circle cx="275.1" cy="752.5" r="5" fill="#f5e8ea" opacity="0.5"/>
<circle cx="283.3" cy="739.3" r="5" fill="#f5e8ea" opacity="0.5"/>
<circle cx="291.4" cy="734.6" r="5" fill="#f5e8ea" opacity="0.5"/>
<circle cx="299.6" cy="734.4" r="5" fill="#f5e8ea" opacity="0.5"/>
<circle cx="307.7" cy="717.3" r="5" fill="#f5e8ea" opacity="0.5"/>
<circle cx="315.8" cy="709.1" r="5" fill="#f5e8ea" opacity="0.5"/>
<circle cx="324.0" cy="706.6" r="5" fill="#f5e8ea" opacity="0.5"/>
<circle cx="332.1" cy="701.2" r="5" fill="#f5e8ea" opacity="0.5"/>
<circle cx="340.3" cy="697.7" r="5" fill="#f5e8ea" opacity="0.5"/>
<circle cx="348.4" cy="695.6" r="5" fill="#f5e8ea" opacity="0.5"/>
<circle cx="356.6" cy="692.6" r="5" fill="#f5e8ea" opacity="0.5"/>
<circle cx="364.7" cy="691.0" r="5" fill="#f5e8ea" opacity="0.5"/>
<circle cx="372.8" cy="679.1" r="5" fill="#f5e8ea" opacity="0.5"/>
<circle cx="381.0" cy="674.8" r="5" fill="#f5e8ea" opacity="0.5"/>
<circle cx="389.1" cy="670.4" r="5" fill="#f5e8ea" opacity="0.5"/>
<circle cx="397.3" cy="668.0" r="5" fill="#f5e8ea" opacity="0.5"/>
<circle cx="405.4" cy="666.9" r="5" fill="#f5e8ea" opacity="0.5"/>
<circle cx="413.6" cy="664.8" r="5" fill="#f5e8ea" opacity="0.5"/>
<circle cx="421.7" cy="664.6" r="5" fill="#f5e8ea" opacity="0.5"/>
<circle cx="429.8" cy="661.6" r="5" fill="#f5e8ea" opacity="0.5"/>
<circle cx="438.0" cy="661.2" r="5" fill="#f5e8ea" opacity="0.5"/>
<circle cx="446.1" cy="660.7" r="5" fill="#f5e8ea" opacity="0.5"/>
<circle cx="454.3" cy="660.0" r="5" fill="#f5e8ea" opacity="0.5"/>
<circle cx="462.4" cy="657.6" r="5" fill="#f5e8ea" opacity="0.5"/>
<circle cx="470.5" cy="656.2" r="5" fill="#f5e8ea" opacity="0.5"/>
<circle cx="478.7" cy="653.3" r="5" fill="#f5e8ea" opacity="0.5"/>
<circle cx="486.8" cy="651.6" r="5" fill="#f5e8ea" opacity="0.5"/>
<circle cx="495.0" cy="647.6" r="5" fill="#f5e8ea" opacity="0.5"/>
<circle cx="503.1" cy="647.5" r="5" fill="#f5e8ea" opacity="0.5"/>
<circle cx="511.3" cy="647.5" r="5" fill="#f5e8ea" opacity="0.5"/>
<circle cx="519.4" cy="647.2" r="5" fill="#f5e8ea" opacity="0.5"/>
<circle cx="527.5" cy="646.9" r="5" fill="#f5e8ea" opacity="0.5"/>
<circle cx="535.7" cy="646.3" r="5" fill="#f5e8ea" opacity="0.5"/>
<circle cx="543.8" cy="642.7" r="5" fill="#f5e8ea" opacity="0.5"/>
<circle cx="552.0" cy="642.2" r="5" fill="#f5e8ea" opacity="0.5"/>
<circle cx="560.1" cy="642.1" r="5" fill="#f5e8ea" opacity="0.5"/>
<circle cx="568.3" cy="640.0" r="5" fill="#f5e8ea" opacity="0.5"/>
<circle cx="576.4" cy="639.8" r="5" fill="#f5e8ea" opacity="0.5"/>
<circle cx="584.5" cy="639.0" r="5" fill="#f5e8ea" opacity="0.5"/>
<circle cx="592.7" cy="638.7" r="5" fill="#f5e8ea" opacity="0.5"/>
<circle cx="600.8" cy="637.5" r="5" fill="#f5e8ea" opacity="0.5"/>
<circle cx="609.0" cy="636.9" r="5" fill="#f5e8ea" opacity="0.5"/>
<circle cx="617.1" cy="636.6" r="5" fill="#f5e8ea" opacity="0.5"/>
<circle cx="625.2" cy="636.4" r="5" fill="#f5e8ea" opacity="0.5"/>
<circle cx="633.4" cy="634.5" r="5" fill="#f5e8ea" opacity="0.5"/>
<circle cx="641.5" cy="633.1" r="5" fill="#f5e8ea" opacity="0.5"/>
<circle cx="649.7" cy="631.0" r="5" fill="#f5e8ea" opacity="0.5"/>
<circle cx="657.8" cy="629.6" r="5" fill="#f5e8ea" opacity="0.5"/>
<circle cx="666.0" cy="628.4" r="5" fill="#f5e8ea" opacity="0.5"/>
<circle cx="674.1" cy="626.8" r="5" fill="#f5e8ea" opacity="0.5"/>
<circle cx="682.2" cy="624.2" r="5" fill="#f5e8ea" opacity="0.5"/>
<circle cx="690.4" cy="617.8" r="5" fill="#f5e8ea" opacity="0.5"/>
<circle cx="698.5" cy="614.7" r="5" fill="#f5e8ea" opacity="0.5"/>
<circle cx="706.7" cy="612.8" r="5" fill="#f5e8ea" opacity="0.5"/>
<circle cx="714.8" cy="612.4" r="5" fill="#f5e8ea" opacity="0.5"/>
<circle cx="723.0" cy="611.8" r="5" fill="#f5e8ea" opacity="0.5"/>
<circle cx="731.1" cy="609.4" r="5" fill="#f5e8ea" opacity="0.5"/>
<circle cx="739.2" cy="606.5" r="5" fill="#f5e8ea" opacity="0.5"/>
<circle cx="747.4" cy="606.4" r="5" fill="#f5e8ea" opacity="0.5"/>
<circle cx="755.5" cy="605.9" r="5" fill="#f5e8ea" opacity="0.5"/>
<circle cx="763.7" cy="605.6" r="5" fill="#f5e8ea" opacity="0.5"/>
<circle cx="771.8" cy="605.2" r="5" fill="#f5e8ea" opacity="0.5"/>
<circle cx="779.9" cy="605.0" r="5" fill="#f5e8ea" opacity="0.5"/>
<circle cx="788.1" cy="603.8" r="5" fill="#f5e8ea" opacity="0.5"/>
<circle cx="796.2" cy="602.6" r="5" fill="#f5e8ea" opacity="0.5"/>
<circle cx="804.4" cy="602.4" r="5" fill="#f5e8ea" opacity="0.5"/>
<circle cx="812.5" cy="602.3" r="5" fill="#f5e8ea" opacity="0.5"/>
<circle cx="820.7" cy="602.3" r="5" fill="#f5e8ea" opacity="0.5"/>
<circle cx="828.8" cy="597.8" r="5" fill="#f5e8ea" opacity="0.5"/>
<circle cx="836.9" cy="597.5" r="5" fill="#f5e8ea" opacity="0.5"/>
<circle cx="845.1" cy="596.5" r="5" fill="#f5e8ea" opacity="0.5"/>
<circle cx="853.2" cy="595.8" r="5" fill="#f5e8ea" opacity="0.5"/>
<circle cx="861.4" cy="595.2" r="5" fill="#f5e8ea" opacity="0.5"/>
<circle cx="869.5" cy="594.6" r="5" fill="#f5e8ea" opacity="0.5"/>
<circle cx="877.7" cy="594.3" r="5" fill="#f5e8ea" opacity="0.5"/>
<circle cx="885.8" cy="590.8" r="5" fill="#f5e8ea" opacity="0.5"/>
<circle cx="893.9" cy="590.8" r="5" fill="#f5e8ea" opacity="0.5"/>
<circle cx="902.1" cy="590.3" r="5" fill="#f5e8ea" opacity="0.5"/>
<circle cx="910.2" cy="588.8" r="5" fill="#f5e8ea" opacity="0.5"/>
<circle cx="918.4" cy="588.0" r="5" fill="#f5e8ea" opacity="0.5"/>
<circle cx="926.5" cy="587.7" r="5" fill="#f5e8ea" opacity="0.5"/>
<circle cx="934.6" cy="587.7" r="5" fill="#f5e8ea" opacity="0.5"/>
<circle cx="942.8" cy="587.6" r="5" fill="#f5e8ea" opacity="0.5"/>
<circle cx="950.9" cy="587.3" r="5" fill="#f5e8ea" opacity="0.5"/>
<circle cx="959.1" cy="586.9" r="5" fill="#f5e8ea" opacity="0.5"/>
<circle cx="967.2" cy="586.9" r="5" fill="#f5e8ea" opacity="0.5"/>
<circle cx="975.4" cy="585.7" r="5" fill="#f5e8ea" opacity="0.5"/>
<circle cx="983.5" cy="583.8" r="5" fill="#f5e8ea" opacity="0.5"/>
<circle cx="991.6" cy="581.3" r="5" fill="#f5e8ea" opacity="0.5"/>
<circle cx="999.8" cy="580.6" r="5" fill="#f5e8ea" opacity="0.5"/>
<circle cx="1007.9" cy="576.4" r="5" fill="#f5e8ea" opacity="0.5"/>
<circle cx="1016.1" cy="574.6" r="5" fill="#f5e8ea" opacity="0.5"/>
<circle cx="1024.2" cy="573.3" r="5" fill="#f5e8ea" opacity="0.5"/>
<circle cx="1032.3" cy="572.9" r="5" fill="#f5e8ea" opacity="0.5"/>
<circle cx="1040.5" cy="572.9" r="5" fill="#f5e8ea" opacity="0.5"/>
<circle cx="1048.6" cy="570.7" r="5" fill="#f5e8ea" opacity="0.5"/>
<circle cx="1056.8" cy="569.3" r="5" fill="#f5e8ea" opacity="0.5"/>
<circle cx="1064.9" cy="567.9" r="5" fill="#f5e8ea" opacity="0.5"/>
<circle cx="1073.1" cy="565.9" r="5" fill="#f5e8ea" opacity="0.5"/>
<circle cx="1081.2" cy="564.4" r="5" fill="#f5e8ea" opacity="0.5"/>
<circle cx="1089.3" cy="561.1" r="5" fill="#f5e8ea" opacity="0.5"/>
<circle cx="1097.5" cy="558.9" r="5" fill="#f5e8ea" opacity="0.5"/>
<circle cx="1105.6" cy="558.8" r="5" fill="#f5e8ea" opacity="0.5"/>
<circle cx="1113.8" cy="556.4" r="5" fill="#f5e8ea" opacity="0.5"/>
<circle cx="1121.9" cy="553.2" r="5" fill="#f5e8ea" opacity="0.5"/>
<circle cx="1130.1" cy="551.8" r="5" fill="#f5e8ea" opacity="0.5"/>
<circle cx="1138.2" cy="550.2" r="5" fill="#f5e8ea" opacity="0.5"/>
<circle cx="1146.3" cy="550.0" r="5" fill="#f5e8ea" opacity="0.5"/>
<circle cx="1154.5" cy="548.3" r="5" fill="#f5e8ea" opacity="0.5"/>
<circle cx="1162.6" cy="548.0" r="5" fill="#f5e8ea" opacity="0.5"/>
<circle cx="1170.8" cy="547.9" r="5" fill="#f5e8ea" opacity="0.5"/>
<circle cx="1178.9" cy="545.3" r="5" fill="#f5e8ea" opacity="0.5"/>
<circle cx="1187.0" cy="544.6" r="5" fill="#f5e8ea" opacity="0.5"/>
<circle cx="1195.2" cy="544.3" r="5" fill="#f5e8ea" opacity="0.5"/>
<circle cx="1203.3" cy="544.0" r="5" fill="#f5e8ea" opacity="0.5"/>
<circle cx="1211.5" cy="543.6" r="5" fill="#f5e8ea" opacity="0.5"/>
<circle cx="1219.6" cy="541.8" r="5" fill="#f5e8ea" opacity="0.5"/>
<circle cx="1227.8" cy="540.4" r="5" fill="#f5e8ea" opacity="0.5"/>
<circle cx="1235.9" cy="540.3" r="5" fill="#f5e8ea" opacity="0.5"/>
<circle cx="1244.0" cy="536.8" r="5" fill="#f5e8ea" opacity="0.5"/>
<circle cx="1252.2" cy="536.6" r="5" fill="#f5e8ea" opacity="0.5"/>
<circle cx="1260.3" cy="535.7" r="5" fill="#f5e8ea" opacity="0.5"/>
<circle cx="1268.5" cy="535.0" r="5" fill="#f5e8ea" opacity="0.5"/>
<circle cx="1276.6" cy="534.5" r="5" fill="#f5e8ea" opacity="0.5"/>
<circle cx="1284.8" cy="532.1" r="5" fill="#f5e8ea" opacity="0.5"/>
<circle cx="1292.9" cy="528.2" r="5" fill="#f5e8ea" opacity="0.5"/>
<circle cx="1301.0" cy="527.3" r="5" fill="#f5e8ea" opacity="0.5"/>
<circle cx="1309.2" cy="524.5" r="5" fill="#f5e8ea" opacity="0.5"/>
<circle cx="1317.3" cy="520.2" r="5" fill="#f5e8ea" opacity="0.5"/>
<circle cx="1325.5" cy="519.3" r="5" fill="#f5e8ea" opacity="0.5"/>
<circle cx="1333.6" cy="518.5" r="5" fill="#f5e8ea" opacity="0.5"/>
<circle cx="1341.7" cy="516.6" r="5" fill="#f5e8ea" opacity="0.5"/>
<circle cx="1349.9" cy="516.0" r="5" fill="#f5e8ea" opacity="0.5"/>
<circle cx="1358.0" cy="515.9" r="5" fill="#f5e8ea" opacity="0.5"/>
<circle cx="1366.2" cy="512.2" r="5" fill="#f5e8ea" opacity="0.5"/>
<circle cx="1374.3" cy="510.6" r="5" fill="#f5e8ea" opacity="0.5"/>
<circle cx="1382.5" cy="509.2" r="5" fill="#f5e8ea" opacity="0.5"/>
<circle cx="1390.6" cy="506.6" r="5" fill="#f5e8ea" opacity="0.5"/>
<circle cx="1398.7" cy="503.8" r="5" fill="#f5e8ea" opacity="0.5"/>
<circle cx="1406.9" cy="501.8" r="5" fill="#f5e8ea" opacity="0.5"/>
<circle cx="1415.0" cy="500.9" r="5" fill="#f5e8ea" opacity="0.5"/>
<circle cx="1423.2" cy="500.3" r="5" fill="#f5e8ea" opacity="0.5"/>
<circle cx="1431.3" cy="499.9" r="5" fill="#f5e8ea" opacity="0.5"/>
<circle cx="1439.5" cy="496.4" r="5" fill="#f5e8ea" opacity="0.5"/>
<circle cx="1447.6" cy="495.4" r="5" fill="#f5e8ea" opacity="0.5"/>
<circle cx="1455.7" cy="495.3" r="5" fill="#f5e8ea" opacity="0.5"/>
<circle cx="1463.9" cy="494.4" r="5" fill="#f5e8ea" opacity="0.5"/>
<circle cx="1472.0" cy="487.5" r="5" fill="#f5e8ea" opacity="0.5"/>
<circle cx="1480.2" cy="485.4" r="5" fill="#f5e8ea" opacity="0.5"/>
<circle cx="1488.3" cy="485.1" r="5" fill="#f5e8ea" opacity="0.5"/>
<circle cx="1496.4" cy="484.9" r="5" fill="#f5e8ea" opacity="0.5"/>
<circle cx="1504.6" cy="483.2" r="5" fill="#f5e8ea" opacity="0.5"/>
<circle cx="1512.7" cy="482.7" r="5" fill="#f5e8ea" opacity="0.5"/>
<circle cx="1520.9" cy="477.7" r="5" fill="#f5e8ea" opacity="0.5"/>
<circle cx="1529.0" cy="477.5" r="5" fill="#f5e8ea" opacity="0.5"/>
<circle cx="1537.2" cy="471.1" r="5" fill="#f5e8ea" opacity="0.5"/>
<circle cx="1545.3" cy="466.3" r="5" fill="#f5e8ea" opacity="0.5"/>
<circle cx="1553.4" cy="465.3" r="5" fill="#f5e8ea" opacity="0.5"/>
<circle cx="1561.6" cy="464.7" r="5" fill="#f5e8ea" opacity="0.5"/>
<circle cx="1569.7" cy="462.3" r="5" fill="#f5e8ea" opacity="0.5"/>
<circle cx="1577.9" cy="460.4" r="5" fill="#f5e8ea" opacity="0.5"/>
<circle cx="1586.0" cy="459.7" r="5" fill="#f5e8ea" opacity="0.5"/>
<circle cx="1594.2" cy="458.8" r="5" fill="#f5e8ea" opacity="0.5"/>
<circle cx="1602.3" cy="454.3" r="5" fill="#f5e8ea" opacity="0.5"/>
<circle cx="1610.4" cy="451.3" r="5" fill="#f5e8ea" opacity="0.5"/>
<circle cx="1618.6" cy="446.5" r="5" fill="#f5e8ea" opacity="0.5"/>
<circle cx="1626.7" cy="442.4" r="5" fill="#f5e8ea" opacity="0.5"/>
<circle cx="1634.9" cy="442.2" r="5" fill="#f5e8ea" opacity="0.5"/>
<circle cx="1643.0" cy="422.7" r="5" fill="#f5e8ea" opacity="0.5"/>
<circle cx="1651.1" cy="420.3" r="5" fill="#f5e8ea" opacity="0.5"/>
<circle cx="1659.3" cy="419.3" r="5" fill="#f5e8ea" opacity="0.5"/>
<circle cx="1667.4" cy="417.5" r="5" fill="#f5e8ea" opacity="0.5"/>
<circle cx="1675.6" cy="401.6" r="5" fill="#f5e8ea" opacity="0.5"/>
<circle cx="1683.7" cy="390.1" r="5" fill="#f5e8ea" opacity="0.5"/>
<circle cx="1691.9" cy="387.5" r="5" fill="#f5e8ea" opacity="0.5"/>
<circle cx="1700.0" cy="340.0" r="15" fill="#ff9100" opacity="1"/>
<line x1="1700.0" y1="362.0" x2="1700.0" y2="460.0" stroke="#ff9100" stroke-width="3" stroke-dasharray="8 7"/>
<text x="1680.0" y="492.0" fill="#ff9100" font-family="Cascadia Mono,Cascadia Code,Consolas,monospace" font-size="25" font-weight="700" text-anchor="end">raw maximum</text>
<text x="1680.0" y="528.0" fill="#c89aa3" font-family="Cascadia Mono,Cascadia Code,Consolas,monospace" font-size="23" font-weight="500" text-anchor="end">selected after comparison</text>
<text x="210.0" y="310.0" fill="#f5e8ea" font-family="Cascadia Mono,Cascadia Code,Consolas,monospace" font-size="28" font-weight="700" text-anchor="start">184 held-out results, ordered from low to high</text>
<text x="210.0" y="352.0" fill="#c89aa3" font-family="Cascadia Mono,Cascadia Code,Consolas,monospace" font-size="24" font-weight="500" text-anchor="start">Each dot is one candidate on the same out-of-sample window.</text>
<text x="960.0" y="930.0" fill="#f5e8ea" font-family="Cascadia Mono,Cascadia Code,Consolas,monospace" font-size="26" font-weight="700" text-anchor="middle">The highlighted maximum is selected evidence—not a pre-specified single test.</text>
<line x1="110.0" y1="1002.0" x2="1810.0" y2="1002.0" stroke="#3a0d1a" stroke-width="2"/>
<text x="110.0" y="1040.0" fill="#c89aa3" font-family="Cascadia Mono,Cascadia Code,Consolas,monospace" font-size="20" font-weight="500" text-anchor="start">RECORDED RUN · SELECTING AFTER COMPARISON CHANGES THE QUESTION</text>
</svg>
